<svg width="492" height="312" viewBox="0 0 492 312" fill="none"
    xmlns="http://www.w3.org/2000/svg">
    <path d="M22.201 209.409C26.4581 209.409 30.3771 210.185 33.9579 211.737C37.5387 213.249 40.3835 215.557 42.4922 218.66C44.6406 221.723 45.7149 225.463 45.7149 229.88C45.7149 234.296 44.6406 238.056 42.4922 241.159C40.3835 244.223 37.5387 246.53 33.9579 248.082C30.3771 249.594 26.4581 250.35 22.201 250.35H2.14848V245.397H9.8472V214.363H2.14848V209.409H22.201ZM21.6042 245.397C26.6969 245.397 30.9142 244.143 34.2563 241.637C37.5984 239.09 39.2694 235.171 39.2694 229.88C39.2694 224.548 37.5984 220.629 34.2563 218.123C30.9142 215.616 26.6969 214.363 21.6042 214.363H15.9942V245.397H21.6042ZM97.7568 245.397V250.35H78.2414V245.397H84.9256L81.1061 235.848H63.4408L59.6809 245.397H66.8425V250.35H47.4465V245.397H53.8323L67.1409 214.303H60.9939V209.409H84.0304V214.303H77.943L91.371 245.397H97.7568ZM79.3157 231.372L72.5121 214.303H72.0347L65.2312 231.372H79.3157ZM146.67 246.889C144.163 249.753 141.259 251.185 137.956 251.185C134.495 251.185 131.571 249.932 129.183 247.426C126.836 244.919 124.926 241.06 123.454 235.848L122.499 232.864H113.965V245.397H121.485V250.35H100.119V245.456H107.818V214.363H100.119V209.409H123.872C128.527 209.409 132.207 210.464 134.913 212.573C137.618 214.681 138.971 217.546 138.971 221.166C138.971 224.15 137.996 226.677 136.047 228.746C134.137 230.775 131.431 232.048 127.93 232.565L129.004 235.49C130.238 238.991 131.61 241.537 133.122 243.129C134.634 244.72 136.345 245.516 138.255 245.516C139.448 245.516 140.463 245.277 141.298 244.8C142.134 244.322 142.91 243.686 143.626 242.89L146.67 246.889ZM113.965 228.209H124.051C126.597 228.209 128.706 227.592 130.377 226.359C132.048 225.085 132.884 223.355 132.884 221.166C132.884 219.058 132.048 217.407 130.377 216.213C128.746 214.98 126.637 214.363 124.051 214.363H113.965V228.209ZM213.562 245.397V250.35H194.046V245.397H200.73L196.911 235.848H179.246L175.486 245.397H182.647V250.35H163.251V245.397H169.637L182.946 214.303H176.799V209.409H199.835V214.303H193.748L207.176 245.397H213.562ZM195.121 231.372L188.317 214.303H187.84L181.036 231.372H195.121ZM254.298 236.146V250.35H215.924V245.397H223.623V214.363H215.924V209.409H237.409V214.363H229.77V245.397H248.509V236.146H254.298ZM278.765 227.194C284.017 228.666 287.975 230.397 290.641 232.386C293.307 234.376 294.64 237.021 294.64 240.324C294.64 242.472 294.043 244.382 292.849 246.053C291.695 247.684 290.084 248.938 288.015 249.813C285.946 250.688 283.619 251.126 281.033 251.126C278.208 251.126 275.522 250.529 272.976 249.335C270.43 248.142 268.082 246.471 265.934 244.322V250.29H260.503V236.504L263.964 236.325C266.073 239.389 268.639 241.796 271.663 243.546C274.687 245.297 277.691 246.172 280.675 246.172C282.903 246.172 284.713 245.695 286.105 244.74C287.538 243.785 288.254 242.492 288.254 240.861C288.254 239.07 287.259 237.539 285.27 236.265C283.281 234.953 279.899 233.679 275.124 232.446C270.151 231.133 266.511 229.422 264.203 227.313C261.895 225.165 260.741 222.539 260.741 219.436C260.741 217.287 261.318 215.397 262.472 213.766C263.666 212.095 265.257 210.822 267.247 209.947C269.236 209.032 271.404 208.574 273.752 208.574C279.282 208.574 283.758 210.603 287.18 214.661V209.409H292.611V223.017L289.268 223.196C287.597 220.013 285.548 217.606 283.121 215.974C280.694 214.343 278.029 213.527 275.124 213.527C272.777 213.527 270.847 214.045 269.335 215.079C267.863 216.074 267.127 217.427 267.127 219.137C267.127 220.888 268.022 222.4 269.813 223.673C271.643 224.906 274.627 226.08 278.765 227.194ZM347.667 245.397V250.35H328.151V245.397H334.836L331.016 235.848H313.351L309.591 245.397H316.753V250.35H297.357V245.397H303.742L317.051 214.303H310.904V209.409H333.94V214.303H327.853L341.281 245.397H347.667ZM329.226 231.372L322.422 214.303H321.945L315.141 231.372H329.226ZM395.749 245.397V250.35H376.233V245.397H382.918L379.098 235.848H361.433L357.673 245.397H364.835V250.35H345.439V245.397H351.824L365.133 214.303H358.986V209.409H382.022V214.303H375.935L389.363 245.397H395.749ZM377.308 231.372L370.504 214.303H370.027L363.223 231.372H377.308ZM433.084 222.539V214.363H411.838V227.433H421.267V221.883H426.042V237.519H421.267V231.969H411.838V245.397H433.084V237.22H438.574V250.35H398.111V245.397H405.75V214.363H398.111V209.409H438.574V222.539H433.084ZM465.255 209.409C469.512 209.409 473.431 210.185 477.012 211.737C480.593 213.249 483.438 215.557 485.546 218.66C487.695 221.723 488.769 225.463 488.769 229.88C488.769 234.296 487.695 238.056 485.546 241.159C483.438 244.223 480.593 246.53 477.012 248.082C473.431 249.594 469.512 250.35 465.255 250.35H445.203V245.397H452.901V214.363H445.203V209.409H465.255ZM464.658 245.397C469.751 245.397 473.968 244.143 477.31 241.637C480.652 239.09 482.324 235.171 482.324 229.88C482.324 224.548 480.652 220.629 477.31 218.123C473.968 215.616 469.751 214.363 464.658 214.363H459.048V245.397H464.658Z" fill="#666666"/>
    <path d="M74.117 301.53C71.117 301.53 66.897 299.31 66.897 292.67C66.897 286.3 69.707 283.25 74.117 283.25H81.537V298.25H86.117V301.49L74.117 301.53ZM78.187 286.26H74.237C71.117 286.26 70.367 290.26 70.367 292.67C70.367 295.08 71.427 298.29 74.237 298.29H78.187V286.26ZM72.907 279.74V276.1H76.227V279.74H72.907ZM78.147 279.74V276.1H81.447V279.74H78.147Z" fill="#666666"/>
    <path d="M101.617 301.53C100.316 301.524 99.0247 301.301 97.7968 300.87C96.5638 301.294 95.2706 301.517 93.9668 301.53H84.9668V298.29H94.0368L87.8268 292.59C87.8268 287.39 91.4968 283.02 97.8268 283.02C104.157 283.02 107.827 287.39 107.827 292.59L101.617 298.29H110.617V301.53H101.617ZM97.8668 286H97.7968C96.9867 285.95 96.1748 286.065 95.4102 286.337C94.6457 286.61 93.9445 287.035 93.349 287.587C92.7535 288.138 92.2761 288.805 91.9457 289.546C91.6153 290.288 91.4388 291.088 91.4268 291.9C93.0268 293.47 97.7968 297.8 97.7968 297.8L104.157 291.9C104.157 288.92 101.657 286.14 97.8668 286Z" fill="#666666"/>
    <path d="M109.627 301.53V298.29C112.757 298.29 114.157 296.57 114.157 293.64V283.25H117.517V293.8C117.517 298.6 114.557 301.53 109.627 301.53ZM113.927 308.53V304.9H117.247V308.53H113.927Z" fill="#666666"/>
    <path d="M122.087 293.8V276.1H125.447V293.64C125.447 296.57 127.057 298.29 130.137 298.29V301.53C125.177 301.53 122.087 298.6 122.087 293.8Z" fill="#666666"/>
    <path d="M128.347 279.77V276.1H131.697V279.77H128.347ZM141.547 301.53C140.423 301.588 139.301 301.393 138.263 300.961C137.225 300.528 136.297 299.868 135.547 299.03C134.845 299.879 133.951 300.548 132.939 300.983C131.927 301.417 130.826 301.605 129.727 301.53H129.337V298.29H129.727C132.227 298.29 133.727 296.85 133.727 294.46V283.25H137.087V294.58C137.087 296.96 138.807 298.29 141.577 298.29H141.927V301.53H141.547ZM133.657 279.77V276.1H137.017V279.77H133.657Z" fill="#666666"/>
    <path d="M140.957 301.53V298.29C144.087 298.29 145.687 296.57 145.687 293.64V276.1H149.047V293.8C149.047 298.6 145.877 301.53 140.957 301.53Z" fill="#666666"/>
    <path d="M153.617 301.53V276.1H156.977V301.53H153.617Z" fill="#666666"/>
    <path d="M179.447 301.53C176.447 301.53 172.217 299.31 172.217 292.67C172.217 286.3 175.037 283.25 179.447 283.25H186.867V298.25H191.437V301.49L179.447 301.53ZM183.447 286.26H179.507C176.377 286.26 175.637 290.26 175.637 292.67C175.637 295.08 176.697 298.29 179.507 298.29H183.447V286.26ZM178.177 279.74V276.1H181.497V279.74H178.177ZM183.407 279.74V276.1H186.727V279.74H183.407Z" fill="#666666"/>
    <path d="M189.087 308.56V304.93H192.447V308.56H189.087ZM190.417 301.56V298.32C193.537 298.32 194.947 296.6 194.947 293.67V283.25H198.307V293.8C198.307 298.6 195.337 301.53 190.447 301.53L190.417 301.56ZM194.357 308.56V304.93H197.717V308.56H194.357Z" fill="#666666"/>
    <path d="M200.727 308.56V305.56C201.453 305.477 202.143 305.196 202.722 304.748C203.3 304.301 203.744 303.703 204.007 303.02C204.493 301.559 204.68 300.015 204.557 298.48V283.25H207.917V300.63C207.917 304.81 205.297 308.72 200.727 308.56Z" fill="#666666"/>
    <path d="M212.447 293.8V276.1H215.807V293.64C215.807 296.57 217.407 298.29 220.497 298.29V301.53C215.537 301.53 212.447 298.6 212.447 293.8Z" fill="#666666"/>
    <path d="M219.677 301.53V298.29H232.327C232.327 286.1 222.327 286.65 222.327 286.65V283.65C231.587 283.65 235.687 290.37 235.687 298.34H240.447V301.58L219.677 301.53ZM225.577 308.53V304.93H228.937V308.53H225.577Z" fill="#666666"/>
    <path d="M238.737 279.77V276.1H242.097V279.77H238.737ZM251.937 301.53C250.814 301.588 249.691 301.393 248.653 300.961C247.615 300.528 246.687 299.868 245.937 299.03C245.235 299.879 244.341 300.548 243.329 300.983C242.317 301.417 241.216 301.605 240.117 301.53H239.727V298.29H240.117C242.617 298.29 244.117 296.85 244.117 294.46V283.25H247.447V294.58C247.447 296.96 249.167 298.29 251.937 298.29H252.287V301.53H251.937ZM244.047 279.77V276.1H247.447V279.77H244.047Z" fill="#666666"/>
    <path d="M251.357 301.53V298.29C254.477 298.29 256.077 296.57 256.077 293.64V276.1H259.447V293.8C259.447 298.6 256.277 301.53 251.357 301.53Z" fill="#666666"/>
    <path d="M264.007 301.53V276.1H267.367V301.53H264.007Z" fill="#666666"/>
    <path d="M297.447 301.53H290.297C285.417 301.53 282.527 298.6 282.527 293.8V283.25H285.847V293.64C285.847 296.57 286.977 298.29 290.027 298.29H297.447C300.447 298.29 301.827 296.49 301.827 293.64V283.25H305.147V293.8C305.187 298.6 302.327 301.49 297.447 301.53ZM289.557 279.77V276.14H292.917V279.77H289.557ZM294.827 279.77V276.14H298.187V279.77H294.827Z" fill="#666666"/>
    <path d="M309.757 293.8V276.1H313.117V293.64C313.117 296.57 314.717 298.29 317.807 298.29V301.53C312.837 301.53 309.757 298.6 309.757 293.8Z" fill="#666666"/>
    <path d="M328.507 301.53C327.354 301.577 326.21 301.325 325.183 300.799C324.156 300.274 323.283 299.492 322.647 298.53C322.034 299.468 321.193 300.234 320.203 300.759C319.213 301.284 318.107 301.549 316.987 301.53V298.29C317.759 298.264 318.505 298.003 319.125 297.542C319.744 297.081 320.209 296.442 320.457 295.71C320.912 294.26 321.072 292.733 320.927 291.22H321.007C321.167 285.44 324.007 281.92 328.507 281.92C333.237 281.92 336.127 285.6 336.127 291.77C336.127 297.94 333.307 301.53 328.507 301.53ZM328.507 284.81C325.807 284.81 324.407 287.16 324.407 291.81C324.407 296.46 325.807 298.6 328.507 298.6C331.207 298.6 332.647 296.34 332.647 291.88C332.647 287.16 331.317 284.81 328.507 284.81V284.81Z" fill="#666666"/>
    <path d="M360.737 301.53H360.147C359.031 301.602 357.913 301.413 356.882 300.979C355.852 300.546 354.936 299.878 354.207 299.03C353.592 299.837 352.793 300.486 351.876 300.921C350.959 301.356 349.951 301.565 348.937 301.53H340.657V298.29H343.977V276.1H347.447V298.29H348.847C351.387 298.29 352.677 295.95 352.677 291.29V276.14H356.037V293.6C356.05 294.319 356.01 295.037 355.917 295.75C356.427 297.43 357.837 298.29 360.177 298.29H360.767L360.737 301.53Z" fill="#666666"/>
    <path d="M376.247 301.53C374.942 301.524 373.648 301.301 372.417 300.87C371.184 301.294 369.891 301.517 368.587 301.53H359.587V298.29H368.647L362.437 292.59C362.437 287.39 366.107 283.02 372.437 283.02C378.767 283.02 382.437 287.39 382.437 292.59L376.227 298.29H385.227V301.53H376.247ZM372.497 286H372.447C371.637 285.95 370.825 286.065 370.06 286.337C369.296 286.61 368.595 287.035 367.999 287.587C367.404 288.138 366.926 288.805 366.596 289.546C366.265 290.288 366.089 291.088 366.077 291.9C367.677 293.47 372.447 297.8 372.447 297.8L378.807 291.9C378.744 290.284 378.046 288.757 376.865 287.653C375.683 286.548 374.114 285.954 372.497 286V286Z" fill="#666666"/>
    <path d="M384.057 301.53V298.29C387.177 298.29 388.787 296.57 388.787 293.64V276.1H392.147V293.8C392.147 298.6 388.977 301.53 384.057 301.53Z" fill="#666666"/>
    <path d="M396.717 301.53V276.1H400.077V301.53H396.717Z" fill="#666666"/>
    <path d="M440.507 294.35V286.85C438.667 286.85 436.597 287.08 436.597 292.39V301.53H415.267C415.498 298.269 416.153 295.052 417.217 291.96C419.327 286.73 422.417 284.38 428.277 284.46V287.46C425.467 287.46 422.617 287.81 420.657 291.99C419.882 294.032 419.345 296.156 419.057 298.32H433.237V291.68C433.237 283.59 437.967 283.2 443.827 283.28V292.54L440.507 294.35Z" fill="#666666"/>
    <path d="M448.447 301.53V298.29H456.727V291.45C456.727 287.16 456.027 285.95 453.677 285.95L454.227 282.9C455.289 282.849 456.342 283.105 457.263 283.637C458.183 284.169 458.931 284.955 459.417 285.9C459.967 286.9 460.047 287.62 460.047 289.73V298.32H465.047V301.56L448.447 301.53Z" fill="#666666"/>
    <path d="M464.297 301.53V298.29H476.717C476.717 286.1 466.717 286.65 466.717 286.65V283.65C475.977 283.65 480.077 290.37 480.077 298.34V301.58L464.297 301.53Z" fill="#666666"/>
    <path d="M481.797 309.46V307.63H483.447V307.24C483.447 306.34 483.677 303.41 486.527 303.41C488.207 303.41 488.917 304.27 489.527 305.75H487.527C487.257 305.36 487.097 305.17 486.587 305.17C485.587 305.17 485.377 306.3 485.377 307.17V307.6H489.797V309.43L481.797 309.46ZM484.607 301.53V276.1H487.967V301.53H484.607Z" fill="#666666"/>
    <path fill-rule="evenodd" clip-rule="evenodd" d="M49.2767 311.89H49.1067V284.64L46.4667 288.64C44.7167 291.32 45.1367 290.07 45.1367 294.14V306.89H6.13668V280.58C8.25817 280.455 10.3852 280.455 12.5067 280.58C14.5067 280.69 16.0267 281.51 16.5067 283.13C16.8003 283.964 16.7898 284.875 16.4769 285.702C16.164 286.529 15.5689 287.219 14.7967 287.65L8.73668 288.28C9.30509 289.289 9.94681 290.255 10.6567 291.17C11.3667 292.17 11.9867 293.12 12.6567 294.08C13.3267 295.04 13.9767 296.03 14.6567 296.98L16.6567 299.89H21.3367C21.1267 299.43 16.7967 293.37 16.0667 292.36L15.6867 291.8L15.3367 291.22C16.4775 290.864 17.5352 290.283 18.4467 289.51C21.9467 286.59 22.6667 276.89 11.6167 276.89H2.09668V310.89L49.2767 311.89Z" fill="#666666"/>
    <path fill-rule="evenodd" clip-rule="evenodd" d="M2.02667 265.42C2.02667 267.58 1.96667 270.58 2.02667 272.65C3.02667 272.7 5.08667 272.71 6.08667 272.65V269.27C19.0067 269.39 31.9867 269.17 44.9467 269.33C44.9467 271.44 44.9467 273.56 44.9467 275.67C44.9467 276.9 44.5667 277.04 44.0267 277.88L37.5867 287.68C37.5867 287.68 37.5867 287.6 37.5267 287.62C37.4667 287.64 37.4767 287.57 37.4667 287.56C37.1794 287.205 36.9219 286.827 36.6967 286.43C36.4067 285.97 36.1567 285.6 35.8067 285.08C34.1067 282.55 32.1767 279.5 30.5567 276.9H26.1067V299.9H30.1067V283.37C30.6367 284 34.6967 290.17 35.5867 291.46L37.5867 294.18L46.3467 281.18C47.356 279.725 48.2744 278.209 49.0967 276.64L49.0367 264.94C47.4167 264.8 39.5467 264.94 37.2667 264.94H4.35667C2.15667 264.89 2.02667 264.63 2.02667 265.42Z" fill="#666666"/>
    <path d="M276.92 90.22H189.17C182.502 90.2121 176.11 87.5598 171.395 82.845C166.68 78.1302 164.028 71.7378 164.02 65.07V25.7001C164.028 19.0323 166.68 12.6399 171.395 7.92508C176.11 3.21026 182.502 0.557988 189.17 0.550049H229.01V13.85H189.17C186.03 13.8553 183.02 15.1058 180.8 17.3273C178.581 19.5487 177.333 22.5598 177.33 25.7001V65.07C177.333 68.2094 178.581 71.2194 180.801 73.4393C183.021 75.6591 186.031 76.9074 189.17 76.91H276.92V90.22Z" fill="#666666"/>
    <path d="M328.63 49.42H315.32V25.7001C315.317 22.5598 314.069 19.5487 311.85 17.3273C309.63 15.1058 306.62 13.8553 303.48 13.85H264.58V0.550049H303.48C310.148 0.557988 316.54 3.21026 321.255 7.92508C325.97 12.6399 328.622 19.0323 328.63 25.7001V49.42Z" fill="#666666"/>
    <path d="M303.48 165.16H265.53V151.85H303.48C306.621 151.847 309.632 150.598 311.853 148.376C314.073 146.154 315.32 143.141 315.32 140V102.15C315.317 99.0107 314.069 96.0006 311.849 93.7808C309.629 91.5609 306.619 90.3126 303.48 90.31H299.21V77H303.48C310.148 77.0079 316.54 79.6602 321.255 84.375C325.97 89.0899 328.622 95.4822 328.63 102.15V140C328.622 146.669 325.97 153.062 321.255 157.779C316.541 162.495 310.148 165.149 303.48 165.16V165.16Z" fill="#666666"/>
    <path d="M228.54 165.16H189.17C182.501 165.152 176.107 162.498 171.392 157.781C166.676 153.064 164.025 146.669 164.02 140V117.24H177.33V140C177.333 143.139 178.581 146.149 180.801 148.369C183.021 150.589 186.031 151.837 189.17 151.84H228.54V165.16Z" fill="#666666"/>
    <path d="M280.59 35.19H202.16C201.809 35.1886 201.461 35.2568 201.136 35.3905C200.812 35.5242 200.517 35.7208 200.269 35.969C200.021 36.2172 199.824 36.5121 199.69 36.8366C199.557 37.1612 199.488 37.509 199.49 37.86V71.86H212.79V52.44C212.803 51.3964 213.223 50.3992 213.961 49.6612C214.699 48.9232 215.696 48.5029 216.74 48.49H276.64C277.28 48.4886 277.914 48.6136 278.506 48.8578C279.098 49.1019 279.637 49.4605 280.09 49.9128C280.543 50.3652 280.903 50.9025 281.148 51.494C281.393 52.0855 281.52 52.7196 281.52 53.36V112.36C281.517 113.653 281.002 114.893 280.088 115.808C279.173 116.722 277.933 117.237 276.64 117.24H216.74C215.688 117.227 214.683 116.8 213.944 116.051C213.204 115.302 212.79 114.292 212.79 113.24V95H199.49V127.9C199.488 128.251 199.557 128.599 199.69 128.923C199.824 129.248 200.021 129.543 200.269 129.791C200.517 130.039 200.812 130.236 201.136 130.369C201.461 130.503 201.809 130.571 202.16 130.57H280.59C284.364 130.57 287.983 129.071 290.652 126.402C293.321 123.733 294.82 120.114 294.82 116.34V49.42C294.82 45.6459 293.321 42.0265 290.652 39.3578C287.983 36.6892 284.364 35.19 280.59 35.19Z" fill="#27272A"/>
    <path d="M229.01 13.37C232.285 13.37 234.94 10.7151 234.94 7.44001C234.94 4.16496 232.285 1.51001 229.01 1.51001C225.735 1.51001 223.08 4.16496 223.08 7.44001C223.08 10.7151 225.735 13.37 229.01 13.37Z" fill="white"/>
    <path d="M229.01 14.88C227.538 14.88 226.1 14.4437 224.876 13.6261C223.653 12.8086 222.699 11.6467 222.136 10.2872C221.573 8.92769 221.426 7.43175 221.713 5.98853C222 4.54531 222.708 3.21963 223.749 2.17913C224.789 1.13863 226.115 0.430035 227.558 0.142961C229.002 -0.144113 230.498 0.0032236 231.857 0.56634C233.216 1.12946 234.378 2.08306 235.196 3.30656C236.013 4.53006 236.45 5.96851 236.45 7.44C236.447 9.4124 235.662 11.3033 234.268 12.698C232.873 14.0927 230.982 14.8774 229.01 14.88V14.88ZM229.01 3C228.136 3 227.281 3.25923 226.554 3.74491C225.827 4.23058 225.261 4.92089 224.926 5.72854C224.592 6.53619 224.504 7.42491 224.675 8.2823C224.845 9.1397 225.266 9.92727 225.884 10.5454C226.503 11.1636 227.29 11.5845 228.148 11.7551C229.005 11.9256 229.894 11.8381 230.701 11.5036C231.509 11.169 232.199 10.6025 232.685 9.87562C233.171 9.14876 233.43 8.2942 233.43 7.42C233.427 6.24856 232.961 5.12585 232.132 4.29751C231.304 3.46917 230.181 3.00264 229.01 3Z" fill="#27272A"/>
    <path d="M263.4 13.37C266.675 13.37 269.33 10.7151 269.33 7.44001C269.33 4.16496 266.675 1.51001 263.4 1.51001C260.125 1.51001 257.47 4.16496 257.47 7.44001C257.47 10.7151 260.125 13.37 263.4 13.37Z" fill="white"/>
    <path d="M263.4 14.88C261.928 14.88 260.49 14.4437 259.267 13.6261C258.043 12.8086 257.089 11.6467 256.526 10.2872C255.963 8.92769 255.816 7.43175 256.103 5.98853C256.39 4.54531 257.099 3.21963 258.139 2.17913C259.18 1.13863 260.505 0.430035 261.948 0.142961C263.392 -0.144113 264.888 0.0032236 266.247 0.56634C267.607 1.12946 268.769 2.08306 269.586 3.30656C270.404 4.53006 270.84 5.96851 270.84 7.44C270.837 9.4124 270.053 11.3033 268.658 12.698C267.263 14.0927 265.372 14.8774 263.4 14.88ZM263.4 3.02C262.526 3.02 261.671 3.27923 260.944 3.76491C260.217 4.25058 259.651 4.94089 259.316 5.74854C258.982 6.55619 258.894 7.44491 259.065 8.3023C259.235 9.1597 259.656 9.94727 260.275 10.5654C260.893 11.1836 261.68 11.6045 262.538 11.7751C263.395 11.9456 264.284 11.8581 265.091 11.5236C265.899 11.189 266.589 10.6225 267.075 9.89562C267.561 9.16876 267.82 8.3142 267.82 7.44C267.821 6.85825 267.708 6.28193 267.487 5.74395C267.265 5.20598 266.94 4.71688 266.53 4.30459C266.119 3.8923 265.631 3.56488 265.094 3.34104C264.558 3.1172 263.982 3.00132 263.4 3V3.02Z" fill="#27272A"/>
    <path d="M170.44 125.78C173.715 125.78 176.37 123.125 176.37 119.85C176.37 116.575 173.715 113.92 170.44 113.92C167.165 113.92 164.51 116.575 164.51 119.85C164.51 123.125 167.165 125.78 170.44 125.78Z" fill="white"/>
    <path d="M170.44 127.29C168.969 127.29 167.53 126.854 166.307 126.036C165.083 125.219 164.129 124.057 163.566 122.697C163.003 121.338 162.856 119.842 163.143 118.399C163.43 116.955 164.139 115.63 165.179 114.589C166.22 113.549 167.545 112.84 168.989 112.553C170.432 112.266 171.928 112.413 173.287 112.976C174.647 113.539 175.809 114.493 176.626 115.717C177.444 116.94 177.88 118.378 177.88 119.85C177.877 121.822 177.093 123.713 175.698 125.108C174.303 126.503 172.412 127.287 170.44 127.29ZM170.44 115.43C169.566 115.43 168.711 115.689 167.984 116.175C167.258 116.661 166.691 117.351 166.356 118.159C166.022 118.966 165.934 119.855 166.105 120.712C166.275 121.57 166.696 122.357 167.315 122.975C167.933 123.594 168.72 124.015 169.578 124.185C170.435 124.356 171.324 124.268 172.131 123.934C172.939 123.599 173.629 123.032 174.115 122.306C174.601 121.579 174.86 120.724 174.86 119.85C174.86 118.678 174.394 117.553 173.565 116.725C172.737 115.896 171.612 115.43 170.44 115.43Z" fill="#27272A"/>
    <path d="M229.37 164.79C232.645 164.79 235.3 162.135 235.3 158.86C235.3 155.585 232.645 152.93 229.37 152.93C226.095 152.93 223.44 155.585 223.44 158.86C223.44 162.135 226.095 164.79 229.37 164.79Z" fill="white"/>
    <path d="M229.37 166.3C227.898 166.3 226.46 165.864 225.236 165.046C224.013 164.229 223.059 163.067 222.496 161.707C221.933 160.348 221.786 158.852 222.073 157.409C222.36 155.965 223.068 154.64 224.109 153.599C225.149 152.559 226.475 151.85 227.918 151.563C229.361 151.276 230.857 151.423 232.217 151.986C233.576 152.549 234.738 153.503 235.556 154.727C236.373 155.95 236.81 157.388 236.81 158.86C236.807 160.832 236.022 162.723 234.628 164.118C233.233 165.513 231.342 166.297 229.37 166.3V166.3ZM229.37 154.44C228.495 154.438 227.64 154.696 226.911 155.18C226.183 155.664 225.615 156.354 225.279 157.162C224.943 157.969 224.854 158.858 225.023 159.716C225.193 160.574 225.613 161.363 226.231 161.982C226.848 162.601 227.636 163.023 228.494 163.194C229.351 163.366 230.241 163.279 231.049 162.944C231.857 162.61 232.548 162.044 233.034 161.317C233.52 160.59 233.78 159.735 233.78 158.86C233.78 157.689 233.315 156.567 232.489 155.738C231.662 154.909 230.54 154.443 229.37 154.44V154.44Z" fill="#27272A"/>
    <path d="M263.76 164.79C267.035 164.79 269.69 162.135 269.69 158.86C269.69 155.585 267.035 152.93 263.76 152.93C260.485 152.93 257.83 155.585 257.83 158.86C257.83 162.135 260.485 164.79 263.76 164.79Z" fill="white"/>
    <path d="M263.76 166.3C262.288 166.302 260.849 165.867 259.624 165.051C258.399 164.235 257.444 163.073 256.879 161.714C256.315 160.355 256.166 158.859 256.452 157.415C256.738 155.971 257.446 154.644 258.486 153.603C259.526 152.561 260.851 151.852 262.295 151.564C263.738 151.276 265.235 151.423 266.595 151.985C267.955 152.548 269.118 153.502 269.936 154.726C270.753 155.949 271.19 157.388 271.19 158.86C271.187 160.831 270.404 162.72 269.012 164.114C267.619 165.509 265.731 166.295 263.76 166.3V166.3ZM263.76 154.44C262.885 154.438 262.03 154.696 261.302 155.18C260.574 155.664 260.005 156.354 259.669 157.162C259.333 157.969 259.244 158.858 259.414 159.716C259.583 160.574 260.003 161.363 260.621 161.982C261.239 162.601 262.026 163.023 262.884 163.194C263.742 163.366 264.631 163.279 265.439 162.944C266.247 162.61 266.938 162.044 267.424 161.317C267.911 160.59 268.17 159.735 268.17 158.86C268.17 157.689 267.706 156.567 266.879 155.738C266.052 154.909 264.931 154.443 263.76 154.44Z" fill="#27272A"/>
    <path d="M321.26 56.77C324.535 56.77 327.19 54.115 327.19 50.84C327.19 47.5649 324.535 44.91 321.26 44.91C317.985 44.91 315.33 47.5649 315.33 50.84C315.33 54.115 317.985 56.77 321.26 56.77Z" fill="white"/>
    <path d="M321.26 58.28C319.788 58.28 318.35 57.8437 317.126 57.0262C315.903 56.2086 314.949 55.0467 314.386 53.6872C313.823 52.3277 313.676 50.8318 313.963 49.3886C314.25 47.9453 314.958 46.6197 315.999 45.5792C317.039 44.5386 318.365 43.8301 319.808 43.543C321.252 43.2559 322.748 43.4032 324.107 43.9664C325.466 44.5295 326.628 45.4831 327.446 46.7066C328.263 47.9301 328.7 49.3685 328.7 50.84C328.697 52.8124 327.912 54.7033 326.518 56.098C325.123 57.4927 323.232 58.2774 321.26 58.28V58.28ZM321.26 46.42C320.386 46.42 319.531 46.6793 318.804 47.1649C318.077 47.6506 317.511 48.3409 317.176 49.1486C316.842 49.9562 316.754 50.8449 316.925 51.7023C317.095 52.5597 317.516 53.3473 318.134 53.9654C318.753 54.5836 319.54 55.0046 320.398 55.1751C321.255 55.3456 322.144 55.2581 322.951 54.9236C323.759 54.589 324.449 54.0225 324.935 53.2956C325.421 52.5688 325.68 51.7142 325.68 50.84C325.68 50.2596 325.565 49.6848 325.343 49.1486C325.121 48.6123 324.796 48.1251 324.385 47.7146C323.975 47.3042 323.488 46.9786 322.951 46.7565C322.415 46.5344 321.84 46.42 321.26 46.42Z" fill="#27272A"/>
</svg>
