<svg width="167" height="167" viewBox="0 0 167 167" fill="none"
    xmlns="http://www.w3.org/2000/svg">
    <path d="M114.81 90.22H27.0599C20.3922 90.2121 13.9998 87.5598 9.28494 82.845C4.57012 78.1301 1.91785 71.7378 1.90991 65.07V25.7C1.91785 19.0322 4.57012 12.6399 9.28494 7.92502C13.9998 3.2102 20.3922 0.557927 27.0599 0.549988H66.8999V13.85H27.0599C23.9197 13.8553 20.9097 15.1058 18.6901 17.3272C16.4705 19.5487 15.2226 22.5597 15.2199 25.7V65.07C15.2226 68.2094 16.4709 71.2194 18.6907 73.4392C20.9106 75.6591 23.9206 76.9074 27.0599 76.91H114.81V90.22Z" fill="#666666"/>
    <path d="M166.52 49.42H153.21V25.7C153.207 22.5597 151.959 19.5487 149.74 17.3272C147.52 15.1058 144.51 13.8553 141.37 13.85H102.47V0.549988H141.37C148.038 0.557927 154.43 3.2102 159.145 7.92502C163.86 12.6399 166.512 19.0322 166.52 25.7V49.42Z" fill="#666666"/>
    <path d="M141.37 165.16H103.42V151.85H141.37C144.511 151.847 147.523 150.598 149.743 148.376C151.963 146.154 153.21 143.141 153.21 140V102.15C153.207 99.0107 151.959 96.0006 149.739 93.7808C147.519 91.5609 144.509 90.3126 141.37 90.31H137.1V77H141.37C148.038 77.0079 154.43 79.6602 159.145 84.375C163.86 89.0899 166.512 95.4822 166.52 102.15V140C166.512 146.669 163.86 153.062 159.146 157.779C154.431 162.495 148.039 165.149 141.37 165.16Z" fill="#666666"/>
    <path d="M66.4299 165.16H27.0599C20.3904 165.152 13.9965 162.498 9.28142 157.781C4.56631 153.064 1.91521 146.669 1.90991 140V117.24H15.2199V140C15.2226 143.139 16.4709 146.149 18.6907 148.369C20.9106 150.589 23.9206 151.837 27.0599 151.84H66.4299V165.16Z" fill="#666666"/>
    <path d="M118.48 35.19H40.0499C39.6989 35.1887 39.3511 35.2568 39.0266 35.3906C38.7021 35.5243 38.4072 35.7209 38.159 35.9691C37.9108 36.2173 37.7142 36.5121 37.5805 36.8367C37.4468 37.1612 37.3786 37.509 37.3799 37.86V71.86H50.6799V52.44C50.6929 51.3964 51.1132 50.3992 51.8512 49.6613C52.5892 48.9233 53.5863 48.503 54.6299 48.49H114.53C115.17 48.4887 115.805 48.6137 116.397 48.8578C116.989 49.102 117.527 49.4605 117.98 49.9129C118.433 50.3652 118.793 50.9025 119.038 51.494C119.284 52.0855 119.41 52.7196 119.41 53.36V112.36C119.407 113.653 118.892 114.893 117.978 115.808C117.063 116.722 115.823 117.237 114.53 117.24H54.6299C53.5777 117.227 52.5731 116.8 51.8338 116.051C51.0944 115.302 50.6798 114.292 50.6799 113.24V95H37.3799V127.9C37.3786 128.251 37.4468 128.599 37.5805 128.923C37.7142 129.248 37.9108 129.543 38.159 129.791C38.4072 130.039 38.7021 130.236 39.0266 130.369C39.3511 130.503 39.6989 130.571 40.0499 130.57H118.48C122.254 130.57 125.873 129.071 128.542 126.402C131.211 123.733 132.71 120.114 132.71 116.34V49.42C132.71 45.646 131.211 42.0265 128.542 39.3579C125.873 36.6892 122.254 35.19 118.48 35.19Z" fill="#27272A"/>
    <path d="M66.9 13.37C70.1751 13.37 72.83 10.7151 72.83 7.44001C72.83 4.16496 70.1751 1.51001 66.9 1.51001C63.625 1.51001 60.97 4.16496 60.97 7.44001C60.97 10.7151 63.625 13.37 66.9 13.37Z" fill="white"/>
    <path d="M66.8999 14.88C65.4284 14.88 63.99 14.4437 62.7665 13.6261C61.543 12.8086 60.5894 11.6467 60.0263 10.2872C59.4632 8.92769 59.3158 7.43175 59.6029 5.98853C59.89 4.54531 60.5986 3.21963 61.6391 2.17913C62.6796 1.13863 64.0052 0.430035 65.4485 0.142961C66.8917 -0.144113 68.3876 0.00322354 69.7471 0.56634C71.1066 1.12946 72.2685 2.08306 73.0861 3.30656C73.9036 4.53006 74.3399 5.96851 74.3399 7.44C74.3373 9.4124 73.5526 11.3033 72.1579 12.698C70.7632 14.0927 68.8723 14.8774 66.8999 14.88ZM66.8999 3C66.0257 3 65.1712 3.25923 64.4443 3.74491C63.7174 4.23058 63.1509 4.92089 62.8164 5.72854C62.4818 6.53619 62.3943 7.42491 62.5649 8.2823C62.7354 9.1397 63.1564 9.92727 63.7745 10.5454C64.3927 11.1636 65.1802 11.5845 66.0376 11.7551C66.895 11.9256 67.7837 11.8381 68.5914 11.5036C69.399 11.169 70.0893 10.6025 70.575 9.87562C71.0607 9.14876 71.3199 8.2942 71.3199 7.42C71.3173 6.24856 70.8508 5.12585 70.0224 4.29751C69.1941 3.46917 68.0714 3.00264 66.8999 3Z" fill="#27272A"/>
    <path d="M101.29 13.37C104.565 13.37 107.22 10.7151 107.22 7.44001C107.22 4.16496 104.565 1.51001 101.29 1.51001C98.0151 1.51001 95.3601 4.16496 95.3601 7.44001C95.3601 10.7151 98.0151 13.37 101.29 13.37Z" fill="white"/>
    <path d="M101.29 14.88C99.8187 14.88 98.3802 14.4437 97.1567 13.6261C95.9332 12.8086 94.9796 11.6467 94.4165 10.2872C93.8534 8.92769 93.706 7.43175 93.9931 5.98853C94.2802 4.54531 94.9888 3.21963 96.0293 2.17913C97.0698 1.13863 98.3955 0.430035 99.8387 0.142961C101.282 -0.144113 102.778 0.00322354 104.137 0.56634C105.497 1.12946 106.659 2.08306 107.476 3.30656C108.294 4.53006 108.73 5.96851 108.73 7.44C108.727 9.4124 107.943 11.3033 106.548 12.698C105.153 14.0927 103.262 14.8774 101.29 14.88ZM101.29 3.02C100.416 3.02 99.5614 3.27923 98.8345 3.76491C98.1077 4.25058 97.5411 4.94089 97.2066 5.74854C96.8721 6.55619 96.7845 7.44491 96.9551 8.3023C97.1256 9.1597 97.5466 9.94727 98.1647 10.5654C98.7829 11.1836 99.5704 11.6045 100.428 11.7751C101.285 11.9456 102.174 11.8581 102.982 11.5236C103.789 11.189 104.479 10.6225 104.965 9.89562C105.451 9.16876 105.71 8.3142 105.71 7.44C105.711 6.85825 105.598 6.28193 105.377 5.74395C105.155 5.20598 104.83 4.71688 104.42 4.30459C104.009 3.8923 103.522 3.56488 102.985 3.34104C102.448 3.1172 101.872 3.00132 101.29 3V3.02Z" fill="#27272A"/>
    <path d="M8.32991 125.78C11.605 125.78 14.2599 123.125 14.2599 119.85C14.2599 116.575 11.605 113.92 8.32991 113.92C5.05486 113.92 2.3999 116.575 2.3999 119.85C2.3999 123.125 5.05486 125.78 8.32991 125.78Z" fill="white"/>
    <path d="M8.33014 127.29C6.85865 127.29 5.4202 126.854 4.1967 126.036C2.9732 125.219 2.01958 124.057 1.45647 122.697C0.893353 121.338 0.746025 119.842 1.0331 118.399C1.32017 116.955 2.02876 115.63 3.06926 114.589C4.10976 113.549 5.43544 112.84 6.87866 112.553C8.32188 112.266 9.81783 112.413 11.1773 112.976C12.5368 113.539 13.6987 114.493 14.5162 115.717C15.3338 116.94 15.7701 118.379 15.7701 119.85C15.7675 121.822 14.9828 123.713 13.5881 125.108C12.1934 126.503 10.3025 127.287 8.33014 127.29ZM8.33014 115.43C7.45595 115.43 6.60138 115.689 5.87451 116.175C5.14765 116.661 4.58114 117.351 4.2466 118.159C3.91206 118.966 3.82453 119.855 3.99507 120.712C4.16562 121.57 4.58658 122.357 5.20473 122.975C5.82288 123.594 6.61044 124.015 7.46784 124.185C8.32523 124.356 9.21394 124.268 10.0216 123.934C10.8292 123.599 11.5195 123.032 12.0052 122.306C12.4909 121.579 12.7501 120.724 12.7501 119.85C12.7501 118.678 12.2844 117.553 11.4555 116.725C10.6266 115.896 9.5024 115.43 8.33014 115.43Z" fill="#27272A"/>
    <path d="M67.2601 164.79C70.5352 164.79 73.1901 162.135 73.1901 158.86C73.1901 155.585 70.5352 152.93 67.2601 152.93C63.9851 152.93 61.3301 155.585 61.3301 158.86C61.3301 162.135 63.9851 164.79 67.2601 164.79Z" fill="white"/>
    <path d="M67.2601 166.3C65.7886 166.3 64.3502 165.864 63.1267 165.046C61.9032 164.229 60.9496 163.067 60.3865 161.707C59.8233 160.348 59.676 158.852 59.9631 157.409C60.2501 155.965 60.9587 154.64 61.9992 153.599C63.0397 152.559 64.3654 151.85 65.8086 151.563C67.2519 151.276 68.7478 151.423 70.1073 151.986C71.4668 152.549 72.6287 153.503 73.4463 154.727C74.2638 155.95 74.7001 157.389 74.7001 158.86C74.6975 160.832 73.9128 162.723 72.5181 164.118C71.1234 165.513 69.2325 166.297 67.2601 166.3ZM67.2601 154.44C66.3855 154.438 65.53 154.696 64.8018 155.18C64.0736 155.665 63.5055 156.354 63.1694 157.162C62.8334 157.969 62.7444 158.858 62.9138 159.716C63.0832 160.574 63.5034 161.363 64.1212 161.982C64.7389 162.601 65.5265 163.023 66.3841 163.194C67.2418 163.366 68.131 163.279 68.9393 162.944C69.7475 162.61 70.4384 162.044 70.9245 161.317C71.4106 160.59 71.6701 159.735 71.6701 158.86C71.6701 157.689 71.2058 156.567 70.3791 155.738C69.5523 154.909 68.4306 154.443 67.2601 154.44Z" fill="#27272A"/>
    <path d="M101.65 164.79C104.925 164.79 107.58 162.135 107.58 158.86C107.58 155.585 104.925 152.93 101.65 152.93C98.375 152.93 95.72 155.585 95.72 158.86C95.72 162.135 98.375 164.79 101.65 164.79Z" fill="white"/>
    <path d="M101.65 166.3C100.178 166.302 98.7386 165.867 97.5137 165.051C96.2889 164.235 95.3338 163.073 94.7691 161.714C94.2045 160.355 94.0557 158.859 94.3417 157.415C94.6276 155.971 95.3354 154.644 96.3755 153.603C97.4156 152.561 98.7413 151.852 100.185 151.564C101.628 151.276 103.125 151.423 104.485 151.985C105.845 152.548 107.008 153.502 107.825 154.726C108.643 155.949 109.08 157.388 109.08 158.86C109.077 160.831 108.294 162.72 106.902 164.114C105.509 165.509 103.621 166.295 101.65 166.3ZM101.65 154.44C100.775 154.438 99.9198 154.696 99.1916 155.18C98.4634 155.665 97.8953 156.354 97.5592 157.162C97.2232 157.969 97.1342 158.858 97.3036 159.716C97.473 160.574 97.8932 161.363 98.511 161.982C99.1287 162.601 99.9163 163.023 100.774 163.194C101.632 163.366 102.521 163.279 103.329 162.944C104.137 162.61 104.828 162.044 105.314 161.317C105.801 160.59 106.06 159.735 106.06 158.86C106.06 157.689 105.596 156.567 104.769 155.738C103.942 154.909 102.821 154.443 101.65 154.44Z" fill="#27272A"/>
    <path d="M159.15 56.77C162.425 56.77 165.08 54.1151 165.08 50.84C165.08 47.565 162.425 44.91 159.15 44.91C155.875 44.91 153.22 47.565 153.22 50.84C153.22 54.1151 155.875 56.77 159.15 56.77Z" fill="white"/>
    <path d="M159.15 58.28C157.679 58.28 156.24 57.8437 155.017 57.0261C153.793 56.2086 152.839 55.0466 152.276 53.6872C151.713 52.3277 151.566 50.8317 151.853 49.3885C152.14 47.9453 152.849 46.6196 153.889 45.5791C154.93 44.5386 156.255 43.83 157.699 43.543C159.142 43.2559 160.638 43.4032 161.997 43.9663C163.357 44.5294 164.519 45.4831 165.336 46.7066C166.154 47.9301 166.59 49.3685 166.59 50.84C166.587 52.8124 165.803 54.7033 164.408 56.098C163.013 57.4926 161.122 58.2774 159.15 58.28ZM159.15 46.42C158.276 46.42 157.421 46.6792 156.694 47.1649C155.968 47.6506 155.401 48.3409 155.066 49.1485C154.732 49.9562 154.644 50.8449 154.815 51.7023C154.985 52.5597 155.406 53.3473 156.025 53.9654C156.643 54.5836 157.43 55.0045 158.288 55.1751C159.145 55.3456 160.034 55.2581 160.841 54.9235C161.649 54.589 162.339 54.0225 162.825 53.2956C163.311 52.5688 163.57 51.7142 163.57 50.84C163.57 50.2596 163.456 49.6848 163.234 49.1485C163.011 48.6123 162.686 48.125 162.275 47.7146C161.865 47.3042 161.378 46.9786 160.841 46.7564C160.305 46.5343 159.73 46.42 159.15 46.42Z" fill="#27272A"/>
</svg>
